<?xml version="1.0" encoding="iso-8859-1"?>
<!-- Generator: Adobe Illustrator 17.0.0, SVG Export Plug-In . SVG Version: 6.00 Build 0)  -->
<!DOCTYPE svg PUBLIC "-//W3C//DTD SVG 1.1//EN" "http://www.w3.org/Graphics/SVG/1.1/DTD/svg11.dtd">
<svg version="1.1" id="Capa_1" xmlns="http://www.w3.org/2000/svg" xmlns:xlink="http://www.w3.org/1999/xlink" x="0px" y="0px"
	 width="64px" height="64px" viewBox="0 0 64 64" style="enable-background:new 0 0 64 64;" xml:space="preserve">
<path d="M52.5,13.628h-41c-5.79,0-10.5,4.71-10.5,10.5V34.75c0,5.79,4.71,10.5,10.5,10.5h41c5.79,0,10.5-4.71,10.5-10.5V24.128
	C63,18.338,58.29,13.628,52.5,13.628z M11.877,27.323h4.266v12.054h2.46V43.5h-6.726V27.323z M20.304,39.377h2.259V27.323h2.006
	v12.054h2.46V43.5h-6.726V39.377z M28.73,39.377h2.26V27.323h2.006v12.054h2.46V43.5H28.73V39.377z M37.157,39.377h2.26V27.323
	h1.913v12.054h2.554V43.5h-6.726V39.377z M45.491,39.377h2.259V27.323h4.467V43.5h-6.726V39.377z"/>
</svg>
