<?xml version="1.0" encoding="iso-8859-1"?>
<!-- Generator: Adobe Illustrator 17.0.0, SVG Export Plug-In . SVG Version: 6.00 Build 0)  -->
<!DOCTYPE svg PUBLIC "-//W3C//DTD SVG 1.1//EN" "http://www.w3.org/Graphics/SVG/1.1/DTD/svg11.dtd">
<svg version="1.1" id="Capa_1" xmlns="http://www.w3.org/2000/svg" xmlns:xlink="http://www.w3.org/1999/xlink" x="0px" y="0px"
	 width="64px" height="64px" viewBox="0 0 64 64" style="enable-background:new 0 0 64 64;" xml:space="preserve">
<path d="M61.732,12.23l0.27-0.756c-1.375-1.183-0.781-2.78-0.781-2.78l-4.164-2.514l-0.41,0.47
	c-1.144-0.672-2.482-1.603-3.912-2.899C48.595,0,42.83,2.208,38.986,9.667c-0.947,1.837-2.865,5.403-5.215,9.729l-1.415-0.751
	l-2.207,4.158l1.371,0.728c-0.526,0.964-1.062,1.946-1.606,2.941l-1.557-0.827l-2.207,4.158l1.504,0.798
	c-0.626,1.142-1.252,2.285-1.873,3.415l-1.608-0.854l-2.207,4.158l1.55,0.823C19.016,46.327,15.332,53,15.332,53
	s-0.739,1.781-1.848,1.25c-1.109-0.531-1.7-1,0-3.167s7.219-8.5,7.121-21.417c0,0-0.197-1.5,2.957-4L3.667,27.75
	c0,0,2.53,0.987,4.026,2.333c1.782,1.603,4.041,7.417-1.084,14.5C1.484,51.667,1.878,56,7.299,59.333s13.108,3.583,15.868-2.583
	c2.76-6.167,21.486-48.583,21.486-48.583s1.478-4.917,7.392-1.833l3.338,1.764l-0.47,0.539L61.732,12.23z"/>
</svg>
