<?xml version="1.0" encoding="iso-8859-1"?>
<!-- Generator: Adobe Illustrator 17.0.0, SVG Export Plug-In . SVG Version: 6.00 Build 0)  -->
<!DOCTYPE svg PUBLIC "-//W3C//DTD SVG 1.1//EN" "http://www.w3.org/Graphics/SVG/1.1/DTD/svg11.dtd">
<svg version="1.1" id="Capa_1" xmlns="http://www.w3.org/2000/svg" xmlns:xlink="http://www.w3.org/1999/xlink" x="0px" y="0px"
	 width="64px" height="64px" viewBox="0 0 64 64" style="enable-background:new 0 0 64 64;" xml:space="preserve">
<path d="M14.535,53.857l4.518-4.518c0.359,0.775,0.85,1.503,1.487,2.141l1.361,1.36c1.416,1.417,3.299,2.196,5.302,2.197
	c2.003,0,3.887-0.78,5.302-2.197l2.43-2.43l1.599,1.599c0.644,0.644,1.689,0.644,2.333,0c0.644-0.644,0.644-1.689,0-2.333
	l-1.599-1.599l1.555-1.555l1.599,1.599c0.644,0.644,1.689,0.644,2.333,0c0.644-0.644,0.644-1.689,0-2.333l-1.599-1.599l1.555-1.555
	l1.599,1.599c0.644,0.644,1.689,0.644,2.333,0s0.644-1.689,0-2.333l-1.599-1.599l4.082-4.082c1.417-1.416,2.196-3.299,2.196-5.302
	s-0.78-3.886-2.196-5.302l-1.36-1.361c-0.611-0.611-1.312-1.095-2.069-1.458c9.292-8.433,15.688-8.662,15.688-8.662L50.693,3.443
	c-0.324,6.156-10.757,17.755-10.757,17.755l-6.998,6.998l-1.458-1.458c-0.644-0.644-0.911,0.133-1.555,0.778
	c-0.644,0.644-1.422,0.911-0.778,1.555l1.458,1.458l-1.555,1.555l-1.458-1.458c-0.644-0.644-0.911,0.133-1.555,0.778
	s-1.422,0.911-0.778,1.555l1.458,1.458l-1.555,1.555l-1.458-1.458c-0.644-0.644-0.911,0.133-1.555,0.778
	c-0.644,0.644-1.422,0.911-0.778,1.555l1.458,1.458L10.906,50.228c-1.002,1.002-1.002,2.627,0,3.629
	C11.908,54.859,13.533,54.859,14.535,53.857z M29.677,50.013c-1.321,1.321-3.624,1.322-4.947,0l-1.361-1.36
	c-0.719-0.719-1.048-1.676-1.009-2.62l4.098-4.098l5.649,5.649L29.677,50.013z M34.44,45.25l-5.649-5.649l1.555-1.555l5.649,5.649
	L34.44,45.25z M38.328,41.362l-5.649-5.649l1.555-1.555l5.649,5.649L38.328,41.362z M46.298,28.445
	c0.661,0.661,1.024,1.539,1.024,2.473c0,0.935-0.363,1.813-1.024,2.474l-4.082,4.082l-5.649-5.649l5.752-5.752
	c0.049-0.002,0.096-0.014,0.145-0.014c0.934,0,1.812,0.364,2.474,1.024L46.298,28.445z"/>
<path d="M20.213,35.944l2.394-2.394c0.249-0.249,0.182-0.721-0.151-1.054s-0.804-0.4-1.054-0.151l-2.394,2.394
	c-0.249,0.249-0.182,0.721,0.151,1.054S19.963,36.193,20.213,35.944z"/>
<path d="M24.198,31.959l2.394-2.394c0.249-0.249,0.182-0.721-0.151-1.054c-0.333-0.333-0.804-0.4-1.054-0.151l-2.394,2.394
	c-0.249,0.249-0.182,0.721,0.151,1.054S23.948,32.208,24.198,31.959z"/>
<path d="M28.086,28.071l2.394-2.394c0.249-0.249,0.182-0.721-0.151-1.054s-0.804-0.4-1.054-0.151l-2.394,2.394
	c-0.249,0.249-0.182,0.721,0.151,1.054S27.836,28.32,28.086,28.071z"/>
<polygon points="11.246,56.141 8.687,53.582 3.892,55.267 9.562,60.937 "/>
</svg>
