<?xml version="1.0" encoding="utf-8"?>
<!-- Generator: Adobe Illustrator 16.0.4, SVG Export Plug-In . SVG Version: 6.00 Build 0)  -->
<!DOCTYPE svg PUBLIC "-//W3C//DTD SVG 1.1//EN" "http://www.w3.org/Graphics/SVG/1.1/DTD/svg11.dtd">
<svg version="1.1" id="Layer_1" xmlns="http://www.w3.org/2000/svg" xmlns:xlink="http://www.w3.org/1999/xlink" x="0px" y="0px"
	 width="26px" height="26px" viewBox="0 0 26 26" enable-background="new 0 0 26 26" xml:space="preserve">
<path fill="#333333" d="M25.009,3.43c0.439-0.439-0.261-1.364,0.905-2.532L25.1,0.085c-1.197,1.2-2.088,0.464-2.531,0.905
	c-0.42,0.421-0.434,1.103-0.048,1.554l-0.444,0.4l-1.011-1.01c-0.312-0.312-0.818-0.312-1.131,0c-0.312,0.312-0.312,0.819,0,1.132
	l0.951,0.951l-0.388,0.35l-0.933-0.933c-0.312-0.312-0.818-0.312-1.131,0c-0.312,0.312-0.312,0.819,0,1.132l0.873,0.874
	l-2.387,2.151c-0.75-0.69-1.994-1.575-3.474-1.575c-0.759,0-1.577,0.234-2.417,0.849c-0.475,0.347-1.238,0.868-2.15,1.501
	c1.084,1.201,0.362,2.422-0.836,3.621c-0.79,0.789-1.59,1.379-2.387,1.379c-0.45,0-0.9-0.188-1.347-0.635
	c-0.21-0.209-0.345-0.42-0.446-0.631c-0.751,0.621-1.468,1.252-2.09,1.873c-2.873,2.873-2.05,6.385,0.981,9.271
	C4.417,24.986,6.284,26,8.116,26c1.354,0,2.69-0.553,3.91-1.773c0.623-0.623,1.255-1.336,1.878-2.088
	c-0.213-0.104-0.424-0.238-0.635-0.449c-1.237-1.235-0.49-2.496,0.747-3.731c0.787-0.787,1.584-1.37,2.379-1.37
	c0.42,0,0.838,0.163,1.256,0.545c0.634-0.906,1.158-1.671,1.504-2.145c1.812-2.474,0.308-4.771-0.742-5.912l2.149-2.384l0.873,0.874
	C21.591,7.722,21.795,7.8,22,7.8s0.409-0.078,0.565-0.234c0.312-0.312,0.312-0.819,0-1.132l-0.932-0.932l0.35-0.388l0.951,0.951
	C23.091,6.222,23.295,6.3,23.5,6.3s0.409-0.078,0.565-0.234c0.312-0.312,0.312-0.819,0-1.132l-1.009-1.009l0.4-0.445
	C23.908,3.864,24.59,3.849,25.009,3.43z M17.96,14.114c-0.202,0.276-0.465,0.651-0.774,1.097c-0.256-0.068-0.521-0.104-0.791-0.104
	c-1.453,0-2.649,1.028-3.423,1.803c-0.903,0.902-1.435,1.693-1.673,2.488c-0.303,1.014-0.113,2.02,0.532,2.883
	c-0.295,0.328-0.577,0.627-0.85,0.898c-0.89,0.891-1.854,1.342-2.865,1.342c-1.153,0-2.428-0.597-3.653-1.688l4.181-3.666
	l-1.909-1.906l-3.659,4.171c-1.019-1.177-1.584-2.397-1.598-3.507c-0.013-1.027,0.438-2.008,1.34-2.908
	c0.27-0.27,0.568-0.551,0.901-0.849c0.729,0.545,1.437,0.673,1.938,0.673c1.435,0,2.587-0.969,3.433-1.813
	c1.701-1.703,1.998-3.109,1.711-4.198c0.446-0.31,0.823-0.572,1.103-0.776c0.518-0.377,1.023-0.562,1.544-0.562
	c0.88,0,1.75,0.548,2.373,1.091l-3.737,3.369l1.965,1.966l3.38-3.75C18.202,11.027,19.119,12.533,17.96,14.114z"/>
</svg>
